<svg xmlns="http://www.w3.org/2000/svg" viewBox="0 0 380 64" role="img" aria-label="Nodavira"><title>Nodavira</title><polygon points="14,48 14,16 23,16 42,42 42,29 50,29 50,48 41,48 22,22 22,48" fill="#7252db"/><rect x="42" y="16" width="8" height="8" rx="2" fill="#f5bd64"/><g transform="translate(82 16)" fill="none" stroke="#201b32" stroke-width="3" stroke-linejoin="round" stroke-linecap="round"><path transform="translate(0 0)" d="M0 32V0L22 32V0"/><path transform="translate(36 0)" d="M8 0H14Q22 0 22 8V24Q22 32 14 32H8Q0 32 0 24V8Q0 0 8 0Z"/><path transform="translate(72 0)" d="M0 0H10Q22 0 22 12V20Q22 32 10 32H0Z"/><path transform="translate(108 0)" d="M0 32L11 0L22 32M5 20H17"/><path transform="translate(144 0)" d="M0 0L11 32L22 0"/><path transform="translate(180 0)" d="M4 0H18M11 0V32M4 32H18"/><path transform="translate(216 0)" d="M0 32V0H13Q22 0 22 8Q22 16 13 16H0M12 16L23 32"/><path transform="translate(252 0)" d="M0 32L11 0L22 32M5 20H17"/></g></svg>
